<svg xmlns="http://www.w3.org/2000/svg" width="21.893" height="21.893" viewBox="0 0 21.893 21.893">
  <path style="fill: #fff;" d="M8.25-11a6.73,6.73,0,0,0-1.826.247,6.973,6.973,0,0,0-1.644.693A6.844,6.844,0,0,0,3.389-8.986,6.844,6.844,0,0,0,2.315-7.595a6.973,6.973,0,0,0-.693,1.644,6.73,6.73,0,0,0-.247,1.826H0a8.094,8.094,0,0,1,.381-2.46A8.411,8.411,0,0,1,1.466-8.814a8.446,8.446,0,0,1,1.687-1.815,7.326,7.326,0,0,1,2.175-1.208,5.8,5.8,0,0,1-1.08-.892,5.426,5.426,0,0,1-.811-1.106,5.535,5.535,0,0,1-.51-1.273A5.427,5.427,0,0,1,2.75-16.5a5.391,5.391,0,0,1,.43-2.143,5.519,5.519,0,0,1,1.176-1.751A5.519,5.519,0,0,1,6.107-21.57,5.391,5.391,0,0,1,8.25-22a5.391,5.391,0,0,1,2.143.43,5.519,5.519,0,0,1,1.751,1.176,5.519,5.519,0,0,1,1.176,1.751,5.391,5.391,0,0,1,.43,2.143,5.427,5.427,0,0,1-.177,1.391,5.535,5.535,0,0,1-.51,1.273,5.426,5.426,0,0,1-.811,1.106,5.8,5.8,0,0,1-1.08.892,8.38,8.38,0,0,1,1.418.693,7.936,7.936,0,0,1,1.257.951l-.935,1.021a6.866,6.866,0,0,0-2.159-1.354A6.785,6.785,0,0,0,8.25-11ZM4.125-16.5a4.008,4.008,0,0,0,.322,1.606,4.175,4.175,0,0,0,.886,1.311,4.175,4.175,0,0,0,1.311.886,4.008,4.008,0,0,0,1.606.322,4.02,4.02,0,0,0,1.6-.322,4.158,4.158,0,0,0,1.316-.886,4.175,4.175,0,0,0,.886-1.311,4.008,4.008,0,0,0,.322-1.606,4.02,4.02,0,0,0-.322-1.6,4.158,4.158,0,0,0-.886-1.316A4.158,4.158,0,0,0,9.851-20.3a4.02,4.02,0,0,0-1.6-.322,4.009,4.009,0,0,0-1.606.322,4.175,4.175,0,0,0-1.311.886A4.158,4.158,0,0,0,4.447-18.1,4.02,4.02,0,0,0,4.125-16.5ZM20.561-5.468a3.333,3.333,0,0,1,.064.655,3.333,3.333,0,0,1-.064.655l1.332.548-.526,1.278L20.034-2.89a3.542,3.542,0,0,1-.924.924l.559,1.332-1.278.526-.548-1.332a3.333,3.333,0,0,1-.655.064,3.333,3.333,0,0,1-.655-.064L15.984-.107,14.706-.634l.559-1.332a3.542,3.542,0,0,1-.924-.924l-1.332.559-.526-1.278,1.332-.548a3.333,3.333,0,0,1-.064-.655,3.333,3.333,0,0,1,.064-.655l-1.332-.548.526-1.278,1.332.559a3.542,3.542,0,0,1,.924-.924l-.559-1.332,1.278-.526.548,1.332a3.333,3.333,0,0,1,.655-.064,3.333,3.333,0,0,1,.655.064l.548-1.332,1.278.526L19.11-7.659a3.542,3.542,0,0,1,.924.924l1.332-.559.526,1.278ZM17.188-2.75a2.023,2.023,0,0,0,.806-.161,2.069,2.069,0,0,0,.655-.44,2.069,2.069,0,0,0,.44-.655,2.023,2.023,0,0,0,.161-.806,2.023,2.023,0,0,0-.161-.806,2.069,2.069,0,0,0-.44-.655,2.069,2.069,0,0,0-.655-.44,2.023,2.023,0,0,0-.806-.161,2.023,2.023,0,0,0-.806.161,2.069,2.069,0,0,0-.655.44,2.069,2.069,0,0,0-.44.655,2.023,2.023,0,0,0-.161.806,2.023,2.023,0,0,0,.161.806,2.069,2.069,0,0,0,.44.655,2.069,2.069,0,0,0,.655.44A2.023,2.023,0,0,0,17.188-2.75Z" transform="translate(0 22)"></path>
</svg>
