<svg xmlns="http://www.w3.org/2000/svg" width="21.999" height="20.625" viewBox="0 0 21.999 20.625">
  <path style="fill:#fff;" d="M13.751-13.75H12.376v1.375h1.375ZM9.626-5.5H8.251v1.375H9.626ZM5.5-13.75H4.126v1.375H5.5Zm4.125,0H8.251v1.375H9.626ZM13.751-11H12.376v1.375h1.375Zm4.125,0H16.5v1.375h1.375ZM5.5-11H4.126v1.375H5.5Zm4.125,0H8.251v1.375H9.626Zm4.125,2.75H12.376v1.375h1.375Zm4.125,0H16.5v1.375h1.375ZM5.5-8.25H4.126v1.375H5.5Zm4.125,0H8.251v1.375H9.626ZM13.751-5.5H12.376v1.375h1.375Zm4.125,0H16.5v1.375h1.375ZM0-20.625v19.25H22v-19.25H17.875V-22H16.5v1.375H5.5V-22H4.126v1.375ZM20.625-19.25v2.75H1.376v-2.75h2.75v1.375H5.5V-19.25h11v1.375h1.375V-19.25ZM1.376-2.75V-15.125H20.625V-2.75Z" transform="translate(-0.001 22)"></path>
</svg>
