<svg xmlns="http://www.w3.org/2000/svg" width="19.25" height="19.25" viewBox="0 0 19.25 19.25">
  <path style="fill: #fff;" d="M20.625-20.625v19.25H16.5a5.594,5.594,0,0,0-.419-2.175A5.356,5.356,0,0,0,14.921-5.3a5.356,5.356,0,0,0-1.746-1.16A5.594,5.594,0,0,0,11-6.875a5.418,5.418,0,0,0-2.154.43A5.5,5.5,0,0,0,7.1-5.274,5.5,5.5,0,0,0,5.93-3.529,5.418,5.418,0,0,0,5.5-1.375H1.375v-19.25ZM19.25-19.25H2.75v16.5h1.5A6.8,6.8,0,0,1,4.764-4.3a6.892,6.892,0,0,1,.854-1.38A6.918,6.918,0,0,1,6.768-6.821a6.47,6.47,0,0,1,1.407-.838,5.225,5.225,0,0,1-1.117-.875,5.517,5.517,0,0,1-.843-1.128,5.523,5.523,0,0,1-.532-1.305A5.458,5.458,0,0,1,5.5-12.375a5.391,5.391,0,0,1,.43-2.143,5.519,5.519,0,0,1,1.176-1.751,5.519,5.519,0,0,1,1.751-1.176A5.391,5.391,0,0,1,11-17.875a5.391,5.391,0,0,1,2.143.43,5.519,5.519,0,0,1,1.751,1.176,5.519,5.519,0,0,1,1.176,1.751,5.391,5.391,0,0,1,.43,2.143,5.4,5.4,0,0,1-.183,1.4,5.583,5.583,0,0,1-.526,1.294,5.556,5.556,0,0,1-.838,1.128,5.253,5.253,0,0,1-1.106.881,6.948,6.948,0,0,1,1.407.843A6.591,6.591,0,0,1,16.4-5.693a6.848,6.848,0,0,1,.843,1.38,6.934,6.934,0,0,1,.5,1.563h1.5ZM11-8.25a3.963,3.963,0,0,0,1.6-.328,4.214,4.214,0,0,0,1.311-.886,4.214,4.214,0,0,0,.886-1.311,3.963,3.963,0,0,0,.328-1.6,3.963,3.963,0,0,0-.328-1.6,4.214,4.214,0,0,0-.886-1.311,4.214,4.214,0,0,0-1.311-.886A3.963,3.963,0,0,0,11-16.5a3.963,3.963,0,0,0-1.6.328,4.214,4.214,0,0,0-1.311.886A4.214,4.214,0,0,0,7.2-13.976a3.963,3.963,0,0,0-.328,1.6,3.963,3.963,0,0,0,.328,1.6,4.214,4.214,0,0,0,.886,1.311A4.214,4.214,0,0,0,9.4-8.578,3.963,3.963,0,0,0,11-8.25Z" transform="translate(-1.375 20.625)"></path>
</svg>
