<svg xmlns="http://www.w3.org/2000/svg" width="22" height="16.5" viewBox="0 0 22 16.5">
  <path style="fill: #fff;" d="M20.625-13.75a1.344,1.344,0,0,1,.532.107,1.381,1.381,0,0,1,.44.3,1.4,1.4,0,0,1,.3.435,1.306,1.306,0,0,1,.107.526,1.377,1.377,0,0,1-.15.623l-4.5,9.013H0V-17.875a1.332,1.332,0,0,1,.107-.537,1.4,1.4,0,0,1,.3-.435,1.4,1.4,0,0,1,.435-.3,1.332,1.332,0,0,1,.537-.107H5.156a2.99,2.99,0,0,1,.833.1,3.1,3.1,0,0,1,.623.252,2.925,2.925,0,0,1,.489.333,5.2,5.2,0,0,0,.435.333,2.49,2.49,0,0,0,.473.252,1.554,1.554,0,0,0,.585.1H16.5a1.332,1.332,0,0,1,.537.107,1.4,1.4,0,0,1,.435.3,1.4,1.4,0,0,1,.3.435,1.332,1.332,0,0,1,.107.537v2.75Zm-19.25,7.4,3.319-6.639a1.4,1.4,0,0,1,.51-.559,1.344,1.344,0,0,1,.725-.2H16.5V-16.5H8.594a2.99,2.99,0,0,1-.833-.1,3.1,3.1,0,0,1-.623-.252,2.925,2.925,0,0,1-.489-.333,5.2,5.2,0,0,0-.435-.333,2.49,2.49,0,0,0-.473-.252,1.554,1.554,0,0,0-.585-.1H1.375Zm19.25-6.026H5.93L1.8-4.125H16.5Z" transform="translate(0 19.25)"></path>
</svg>
