<svg xmlns="http://www.w3.org/2000/svg" width="19.072" height="20.029" viewBox="0 0 19.072 20.029">
  <path style="fill: #fff;" d="M3.125-13.77h2.51v-2.5H3.125Zm0,5.01h2.51v-2.51H3.125Zm0,5h2.51v-2.5H3.125Zm8.77-12.51H9.385v2.5h2.51Zm-1.26,8.135a2.717,2.717,0,0,1,.83-1.992,2.717,2.717,0,0,1,1.992-.83,2.717,2.717,0,0,1,1.992.83,2.733,2.733,0,0,1,.82,1.992,2.733,2.733,0,0,1-.82,1.992,2.733,2.733,0,0,1-1.992.82,2.733,2.733,0,0,1-1.992-.82A2.717,2.717,0,0,1,10.635-8.135ZM15.791-4.8a4.077,4.077,0,0,0,1.26-1.426,4.022,4.022,0,0,0,.469-1.9,4.019,4.019,0,0,0-.693-2.285,4.005,4.005,0,0,0-1.807-1.475v-8.135H0V0H1.25V-18.779H13.77v6.592l-.312-.02a3.946,3.946,0,0,0-2.881,1.191A3.945,3.945,0,0,0,9.385-8.135a3.956,3.956,0,0,0,.479,1.9A4.077,4.077,0,0,0,11.123-4.8,5.6,5.6,0,0,0,8.828-2.891,5.56,5.56,0,0,0,7.842,0h1.25a4.2,4.2,0,0,1,1.377-2.881,4.343,4.343,0,0,1,5.977,0A4.251,4.251,0,0,1,17.822,0h1.25a5.514,5.514,0,0,0-1-2.891A5.535,5.535,0,0,0,15.791-4.8Z" transform="translate(0 20.029)"></path>
</svg>
