<svg xmlns="http://www.w3.org/2000/svg" style="cursor: pointer;" width="120.623" height="23.85" viewBox="0 0 120.623 23.85">
  <g transform="translate(20 5)">
    <path style="fill:#fff;" d="M1782,2766.792a1.731,1.731,0,0,1-.645-.174.752.752,0,0,1-.313-.373,2.063,2.063,0,0,1-.083-.677v-.2h1.174c0,.209.037.342.119.4a.5.5,0,0,0,.228.071h1.8a.628.628,0,0,0,.242-.048c.09-.037.133-.143.133-.318a.285.285,0,0,0-.093-.253.837.837,0,0,0-.373-.067c-.15,0-.455,0-.951-.037s-.82-.041-.968-.041a2.728,2.728,0,0,1-.675-.09.707.707,0,0,1-.373-.237,1.432,1.432,0,0,1-.223-.906,1.527,1.527,0,0,1,.258-1.006.962.962,0,0,1,.6-.295,13.538,13.538,0,0,1,1.65-.064,9.961,9.961,0,0,1,1.233.054,1.211,1.211,0,0,1,.746.325,1.269,1.269,0,0,1,.2.815v.2h-1.177a.972.972,0,0,0-.025-.242.234.234,0,0,0-.086-.108.705.705,0,0,0-.276-.064h-.842a4.733,4.733,0,0,0-.942.053.262.262,0,0,0-.168.283.246.246,0,0,0,.168.272,11.487,11.487,0,0,0,1.289.078c.641.019,1.073.045,1.289.072a1.334,1.334,0,0,1,.518.16.747.747,0,0,1,.307.387,2.1,2.1,0,0,1,.089.7,1.944,1.944,0,0,1-.152.886.7.7,0,0,1-.316.316,1.559,1.559,0,0,1-.57.143,14.087,14.087,0,0,1-1.468.037h-.2A9.476,9.476,0,0,1,1782,2766.792Zm-75.913,0a1.769,1.769,0,0,1-.645-.174.745.745,0,0,1-.313-.373,2.048,2.048,0,0,1-.085-.678v-.2h1.177c0,.209.037.342.119.4a.5.5,0,0,0,.227.072h1.8a.615.615,0,0,0,.246-.048c.09-.037.133-.143.133-.318a.285.285,0,0,0-.093-.253.827.827,0,0,0-.373-.067c-.15,0-.454,0-.951-.037s-.819-.041-.969-.041a2.722,2.722,0,0,1-.674-.09.7.7,0,0,1-.373-.237,1.434,1.434,0,0,1-.223-.9,1.527,1.527,0,0,1,.258-1.006.96.96,0,0,1,.6-.295,13.53,13.53,0,0,1,1.649-.064,10.055,10.055,0,0,1,1.234.053,1.211,1.211,0,0,1,.746.326,1.271,1.271,0,0,1,.2.815v.2h-1.174a1.06,1.06,0,0,0-.03-.242.217.217,0,0,0-.084-.109.678.678,0,0,0-.28-.064h-.838a4.77,4.77,0,0,0-.942.053.263.263,0,0,0-.171.283.25.25,0,0,0,.171.272,11.588,11.588,0,0,0,1.289.077c.641.019,1.073.045,1.289.072a1.335,1.335,0,0,1,.518.16.736.736,0,0,1,.305.387,2.125,2.125,0,0,1,.09.7,1.986,1.986,0,0,1-.15.886.743.743,0,0,1-.325.317,1.53,1.53,0,0,1-.57.143,13.892,13.892,0,0,1-1.464.037h-.2q-.555,0-1.119-.052Zm91.946-.025a.919.919,0,0,1-.853-.7,6.27,6.27,0,0,1-.108-1.428,5.872,5.872,0,0,1,.108-1.371.923.923,0,0,1,.853-.7,23.257,23.257,0,0,1,3.545,0,.931.931,0,0,1,.857.7h-.012a9.093,9.093,0,0,1,0,2.8.928.928,0,0,1-.856.7,15.316,15.316,0,0,1-1.758.066h-.325a11.753,11.753,0,0,1-1.443-.062Zm.6-3.129a.406.406,0,0,0-.3.279,3.492,3.492,0,0,0-.067.854,2.906,2.906,0,0,0,.037.558.459.459,0,0,0,.44.373,8.924,8.924,0,0,0,1.047.038c.491,0,.816-.008.976-.026a.667.667,0,0,0,.372-.127.454.454,0,0,0,.142-.25,2.831,2.831,0,0,0,.029-.562,5.84,5.84,0,0,0-.029-.667.737.737,0,0,0-.108-.325.454.454,0,0,0-.317-.168,10.071,10.071,0,0,0-1.069-.034h-.255a7.338,7.338,0,0,0-.9.056Zm-85.386,3.2a15.635,15.635,0,0,1-1.773-.066.922.922,0,0,1-.853-.7,6.238,6.238,0,0,1-.109-1.428,5.866,5.866,0,0,1,.109-1.37.922.922,0,0,1,.853-.7,23.426,23.426,0,0,1,3.551,0,.929.929,0,0,1,.838.7,9.141,9.141,0,0,1,0,2.8.925.925,0,0,1-.853.7q-.727.07-1.459.07Zm-1.159-3.2a.407.407,0,0,0-.294.279,3.387,3.387,0,0,0-.071.854,2.832,2.832,0,0,0,.041.558.459.459,0,0,0,.44.373,8.694,8.694,0,0,0,1.043.036c.488,0,.812-.006.976-.024a.668.668,0,0,0,.373-.127.462.462,0,0,0,.141-.25,2.852,2.852,0,0,0,.033-.562,4.866,4.866,0,0,0-.03-.667.717.717,0,0,0-.108-.325.455.455,0,0,0-.317-.168,9.814,9.814,0,0,0-1.069-.034H1713a7.016,7.016,0,0,0-.9.056Zm43.973,3.163v-4.213h3.875a3.441,3.441,0,0,1,.487.052.986.986,0,0,1,.778.719,2.363,2.363,0,0,1,.108.5,5.925,5.925,0,0,1,.025.771c0,.376-.01.663-.029.858a2.492,2.492,0,0,1-.109.529.945.945,0,0,1-.745.682,3.675,3.675,0,0,1-.555.082c-.2.023-.518.023-.965.023Zm1.192-1.1h1.7a4.832,4.832,0,0,0,.685-.034.56.56,0,0,0,.313-.108.488.488,0,0,0,.139-.283h-.008a2.841,2.841,0,0,0,.045-.584,3.837,3.837,0,0,0-.037-.592.64.64,0,0,0-.123-.3.482.482,0,0,0-.288-.146,5.23,5.23,0,0,0-.745-.033h-1.677Zm13.829,1.024a1.5,1.5,0,0,1-.674-.23.8.8,0,0,1-.26-.309,1.711,1.711,0,0,1-.127-.5,8.375,8.375,0,0,1-.034-1.118c0-.384.031-.676.031-.867a2.113,2.113,0,0,1,.108-.526.893.893,0,0,1,.745-.592,11.075,11.075,0,0,1,1.882-.115c.5,0,.9.014,1.192.041a3.116,3.116,0,0,1,.719.134.792.792,0,0,1,.555.65,3.725,3.725,0,0,1,.047.689h-1.215a1.009,1.009,0,0,0,0-.241.2.2,0,0,0-.071-.109.915.915,0,0,0-.433-.093h-.887c-.422,0-.719.03-.9.03a.738.738,0,0,0-.372.115.454.454,0,0,0-.134.283,4.386,4.386,0,0,0-.034.67,5.6,5.6,0,0,0,.033.746.4.4,0,0,0,.4.4,7.7,7.7,0,0,0,1,.026h1.01a.933.933,0,0,0,.283-.055.237.237,0,0,0,.127-.134.784.784,0,0,0,.037-.272v-.121h-1.6v-.842l2.749-.052v.115q0,.894-.046,1.342a.908.908,0,0,1-.783.882,4.459,4.459,0,0,1-.7.09q-.4.023-1.208.023h-.235a11.938,11.938,0,0,1-1.211-.055Zm-26.5.056v-.228a3.058,3.058,0,0,0-.026-.5.45.45,0,0,0-.089-.23.3.3,0,0,0-.187-.093,3.322,3.322,0,0,0-.5-.023h-1.711v1.073h-1.214v-4.213h2.935c.685,0,1.1.023,1.236.023a.859.859,0,0,1,.4.142.747.747,0,0,1,.309.4,2.609,2.609,0,0,1,.084.8,3.181,3.181,0,0,1-.052.676.649.649,0,0,1-.217.35.954.954,0,0,1-.484.191.738.738,0,0,1,.547.234.6.6,0,0,1,.123.291,5.93,5.93,0,0,1,.026.715v.4Zm-2.493-2.146h2.231a.317.317,0,0,0,.149-.048.273.273,0,0,0,.109-.157h.008a1.255,1.255,0,0,0,.029-.343.95.95,0,0,0-.037-.309.235.235,0,0,0-.127-.146.37.37,0,0,0-.152-.037H1742.1Zm53.316,2.142-.344-.715h-2.633l-.344.715h-1.376l.193-.391,1.918-3.822h1.885l2.086,4.213Zm-2.544-1.639h1.777l-.768-1.594h-.235Zm-4.817,1.639v-3.143h-1.772v-1.073h4.821v1.073h-1.773v3.143Zm-12.013,0v-4.213h4.41v.991h-3.214v.607h3.05v.928h-3.05v.676h3.241v1.014Zm-13.983,0v-4.213h4.411v.991h-3.215v.607h3.05v.928h-3.05v.676h3.237v1.014Zm-15.542,0v-4.213h4.415v.991h-3.219v.607h3.055v.928h-3.055v.676h3.242v1.014Zm-7.451,0-.338-.715h-2.634l-.343.715h-1.386l.209-.424,1.9-3.794h1.887l2.082,4.213Zm-2.532-1.639h1.777l-.767-1.594h-.242Zm-5.159,1.639-.8-3.092-.794,3.092h-1.878l-1.5-4.213h1.237l1.069,3.152h.223l.9-3.152h1.468l.905,3.152h.228l1.078-3.152h1.284l-.217.574-1.338,3.64Zm-8.413,0v-3.143h-1.777v-1.073h4.824v1.073h-1.773v3.143Zm-6.236,0v-4.213h4.213v.991h-3v.793h2.85v.969h-2.85v1.46Zm-19.058-.082h-.64v-8.575l.64.637,3.8,3.784v4.153Zm-8.865,0h-.759v-10.3l.759-.759,2.868-2.857,3.84,3.826v10.088Zm-4.539,0H1682v-4.28l2.264-2.253,2.261-2.254v8.787Zm110.345-4.734a3.255,3.255,0,0,1-.834-.18h-.02a3.368,3.368,0,0,0-.685-.163c-.135,0-.2.086-.205.249h-.548a1.26,1.26,0,0,1,.134-.629.6.6,0,0,1,.529-.272,1.155,1.155,0,0,1,.279.033c.085.019.249.066.5.138l.1.029a2.858,2.858,0,0,0,.621.146.132.132,0,0,0,.122-.052.472.472,0,0,0,.038-.2h.542a2.862,2.862,0,0,1-.03.407.589.589,0,0,1-.093.23.5.5,0,0,1-.444.265Zm-96.945-5.342-8.865-8.848-.88-.874.88-.875,2.972-2.961,5.894,5.871,3.8,3.785v7.7ZM1682,2752.8l2.264-2.255,2.578-2.573,1.96,1.951,1.788,1.784-1.788,1.789-4.538,4.53-2.264,2.253Zm26.564,6.586a4.847,4.847,0,0,1-1.9-.857,4.175,4.175,0,0,1-1.322-1.761,7.291,7.291,0,0,1-.415-2.642v-4.1q0-3.227,1.536-4.508t5.562-1.281h5.129a21.317,21.317,0,0,1,3.643.223,4.367,4.367,0,0,1,1.863.745,3.256,3.256,0,0,1,1.055,1.472,6.843,6.843,0,0,1,.335,2.316v.508a3.36,3.36,0,0,1-.026.34h-4.6v-.154a1.463,1.463,0,0,0-.581-1.284,3.264,3.264,0,0,0-1.843-.411h-3.675a5.234,5.234,0,0,0-3.035.571,3.109,3.109,0,0,0-.674,2.384v2.094a2.749,2.749,0,0,0,.746,2.236,5,5,0,0,0,2.958.607h2.668a6,6,0,0,0,2.857-.443,1.8,1.8,0,0,0,.685-1.626v-.16h4.653a.728.728,0,0,0,.018.119c.031.44.031.767.031.975a6.621,6.621,0,0,1-.373,2.385,3.2,3.2,0,0,1-1.14,1.49,4.69,4.69,0,0,1-1.963.782,21.029,21.029,0,0,1-3.6.231h-5.133q-.24.007-.479.006a17.2,17.2,0,0,1-2.979-.266Zm29.575-.012a4.724,4.724,0,0,1-1.9-.856,4.163,4.163,0,0,1-1.322-1.761,7.246,7.246,0,0,1-.414-2.64v-4.1q.008-3.225,1.531-4.507t5.555-1.282h5.115a21.754,21.754,0,0,1,3.665.223,4.368,4.368,0,0,1,1.864.746,3.256,3.256,0,0,1,1.043,1.471,6.785,6.785,0,0,1,.338,2.321v.85h-4.6v-.045a1.54,1.54,0,0,0-.628-1.426,6.667,6.667,0,0,0-2.818-.374h-2.675a5.246,5.246,0,0,0-3.018.562,3.178,3.178,0,0,0-.658,2.4v2.09a2.758,2.758,0,0,0,.746,2.235,4.961,4.961,0,0,0,2.946.608h2.657a7,7,0,0,0,2.723-.372,1.257,1.257,0,0,0,.746-1.233,2.791,2.791,0,0,0-.041-.4v-.052h-5.4v-3.035h10.173v4.932a3.206,3.206,0,0,1-1.572,3.018,11.894,11.894,0,0,1-5.465.893h-5.111q-.245.007-.49.007a17.133,17.133,0,0,1-2.986-.269Zm33.62.176-2.685-5.83-3.716,3.655v-5.159h3.021l-1.937-4.206h-1.049l-5.439,11.545H1755.2l7.551-15.243h6.5l7.283,15.243Zm-44.826-.108v-15.031h4.594v15.031Zm71.245,0v-10.709l-6.21,10.709h-2.995l-6.161-10.709v10.709h-4.459v-15.031h6.773l5.364,9.388,5.449-9.388h6.684v15.031ZM1682,2743h7.677l-.875.875-4.538,4.526-2.264,2.258Zm15.668,3.794-3.8-3.794h7.6v7.581Z" transform="translate(-1702 -2748)"></path>
  </g>
</svg>
